# xmcd
#
# Track frame offsets: 
#        150
#        19081
#        37187
#        57080
#        73522
#        94738
#        114144
#        142574
#        160725
#        178891
#
# Disc length: 2505 seconds
#
# Revision: 0
# Processed by: cddbd v1.5PL3 Copyright (c) Steve Scherf et al.
# Submitted via: ExactAudioCopy v0.90b4
#
DISCID=7909c70a
DTITLE=Don Francisco - One Heart At A Time
DYEAR=1900
DGENRE=Country
TTITLE0=One Heart At A Time
TTITLE1=Still Your Soul In Silence
TTITLE2=Turn It Around
TTITLE3=So Satisfied
TTITLE4=Crooked Cornerstone
TTITLE5=Prodigal's Song
TTITLE6=It Ain't No Sin
TTITLE7=Don't Let Me Go
TTITLE8=I Have Chosen You
TTITLE9=There Are No Words
EXTD=
EXTT0=
EXTT1=
EXTT2=
EXTT3=
EXTT4=
EXTT5=
EXTT6=
EXTT7=
EXTT8=
EXTT9=
PLAYORDER=
